<svg preserveAspectRatio="none" id="af2b37f1-a0f1-467d-86b7-ba1fde98d221" data-name="Layer 1" xmlns="http://www.w3.org/2000/svg" viewBox="0 0 87.51 340.83"><path d="M69.06,337.83H18.46a8.41,8.41,0,0,1-6.68-3.77l-3.64-5A17.49,17.49,0,0,1,5,318.85v-28H82.5v28a17.49,17.49,0,0,1-3.12,10.25l-3.64,5A8.42,8.42,0,0,1,69.06,337.83Z" fill="#ededed" stroke="#050505" stroke-miterlimit="10" stroke-width="6"/><path d="M3,290.64V3H84.51V290.64A19.36,19.36,0,0,1,65.15,310H22.36A19.36,19.36,0,0,1,3,290.64Z" fill="#ededed" stroke="#050505" stroke-miterlimit="10" stroke-width="6"/><g opacity="0.1"><path d="M3,3V290.64A19.36,19.36,0,0,0,22.36,310H65.14A19.36,19.36,0,0,0,84.5,290.64V3ZM75.83,287a8.52,8.52,0,0,1-8.52,8.52H20.21A8.52,8.52,0,0,1,11.69,287V22.17a9.6,9.6,0,0,1,9.6-9.6H66.23a9.6,9.6,0,0,1,9.6,9.6Z" fill="#1c2970"/></g><path d="M70,337.83v-29.5H81.69V327A10.79,10.79,0,0,1,70.9,337.83Z" fill="#1c2970" opacity="0.1" style="isolation:isolate"/><path d="M17.55,337.83v-29.5H5.82V327a10.79,10.79,0,0,0,10.79,10.79Z" fill="#1c2970" opacity="0.1" style="isolation:isolate"/><path d="M5.82,308.33H81.69a10,10,0,0,1-10,10H15.82A10,10,0,0,1,5.82,308.33Z" fill="#1c2970" opacity="0.1" style="isolation:isolate"/></svg>