<svg preserveAspectRatio="none" id="a8206a08-22b3-493a-a65b-355222a92e1f" data-name="Layer 1" xmlns="http://www.w3.org/2000/svg" viewBox="0 0 51.21 173.42"><path d="M3,160.11V3H48.21V160.11A10.31,10.31,0,0,1,37.9,170.42H13.31A10.32,10.32,0,0,1,3,160.11Z" fill="#303136"/><g opacity="0.07"><rect x="13.46" y="2.19" width="24.29" height="141" fill="#f7f7f7"/></g><path d="M44.89,163.8l-7.58-21.53c-.92-2.61-2.86-4.27-5-4.27H18.88c-2.13,0-4.07,1.66-5,4.27L6.32,163.8" fill="none" stroke="#f7f7f7" stroke-linecap="round" stroke-miterlimit="10" stroke-width="8" opacity="0.03" style="isolation:isolate"/><path d="M3,160.11V3H48.21V160.11A10.31,10.31,0,0,1,37.9,170.42H13.31A10.32,10.32,0,0,1,3,160.11Z" fill="none" stroke="#000" stroke-miterlimit="10" stroke-width="6"/><path d="M44.89,166.69l-7.58-21.53c-.92-2.61-2.86-4.27-5-4.27H18.88c-2.13,0-4.07,1.66-5,4.27L6.31,166.69" fill="none" stroke="#000" stroke-linecap="round" stroke-miterlimit="10" stroke-width="6"/></svg>